<?xml version="1.0" standalone="no"?><!DOCTYPE svg PUBLIC "-//W3C//DTD SVG 1.1//EN" "http://www.w3.org/Graphics/SVG/1.1/DTD/svg11.dtd"><svg class="icon" width="200px" height="200.00px" viewBox="0 0 1024 1024" version="1.1" xmlns="http://www.w3.org/2000/svg"><path d="M895.83 160h-768a64.19 64.19 0 0 0-64 64v512a64.19 64.19 0 0 0 64 64h192v64h384v-64h192a64.19 64.19 0 0 0 64-64V224a64.19 64.19 0 0 0-64-64z m0 576h-768V224h768zM468.85 442.51l67.89 67.88 45.25 45.26 158.39-158.4L695.13 352 581.99 465.14 468.85 352l-45.25 45.25-135.77 135.77 45.26 45.25 135.76-135.76z" /></svg>