<?xml version="1.0" standalone="no"?><!DOCTYPE svg PUBLIC "-//W3C//DTD SVG 1.1//EN" "http://www.w3.org/Graphics/SVG/1.1/DTD/svg11.dtd"><svg class="icon" width="200px" height="200.00px" viewBox="0 0 1024 1024" version="1.1" xmlns="http://www.w3.org/2000/svg"><path  d="M896 576 896 448l-64 0L576 448 576 384l192 0L768 64 320 64l0 320 192 0 0 64L256 448 192 448l0 64 0 64L0 576l0 128 0 64 0 128 384 0 0-128 0-64L384 576 256 576 256 512l576 0 0 64-192 0 0 128 0 64 0 128 384 0L1024 576 896 576zM704 128l0 64L384 192 384 128 704 128zM384 320 384 256l320 0 0 64L384 320zM320 832 64 832l0-64 256 0L320 832zM320 704 64 704l0-64 256 0L320 704zM960 832l-256 0 0-64 256 0L960 832zM960 704l-256 0 0-64 256 0L960 704z" /></svg>