<?xml version="1.0" standalone="no"?><!DOCTYPE svg PUBLIC "-//W3C//DTD SVG 1.1//EN" "http://www.w3.org/Graphics/SVG/1.1/DTD/svg11.dtd"><svg class="icon" width="200px" height="200.00px" viewBox="0 0 1024 1024" version="1.1" xmlns="http://www.w3.org/2000/svg"><path  d="M485.152 839.52l0-56.608c0-3.168-1.216-6.304-3.616-8.736s-5.568-3.616-8.736-3.616l-168.576 0c-3.168 0-6.304 1.216-8.736 3.616s-3.616 5.568-3.616 8.736l0 56.608-66.144 36.544c-0.64 0.384-1.216 0.896-1.632 1.6s-0.608 1.44-0.608 2.208l0 8.032c0 1.12 0.416 2.208 1.28 3.072s1.952 1.28 3.072 1.28l321.376 0c1.12 0 2.208-0.416 3.04-1.28s1.248-1.952 1.248-3.072l0-8.032c0-0.736-0.192-1.504-0.608-2.208s-0.96-1.216-1.632-1.6l-66.144-36.544zM768.448 240.576c-5.696-5.728-13.216-8.576-20.704-8.576l-718.432 0c-7.488 0-15.008 2.848-20.704 8.576s-8.576 13.216-8.576 20.736l0 465.056c0 7.52 2.848 15.008 8.576 20.736s13.216 8.576 20.704 8.576l718.432 0c7.488 0 15.008-2.848 20.704-8.576s8.576-13.216 8.576-20.736l0-465.056c0-7.488-2.848-14.976-8.576-20.736zM388.512 743.264c-7.136 0-12.96-5.824-12.96-12.96s5.792-12.96 12.96-12.96 12.96 5.824 12.96 12.96c0 7.168-5.792 12.96-12.96 12.96zM726.368 704.96l-675.68 0 0-422.304 675.68 0 0 422.304zM945.952 352.608l-147.136 0 0 373.728c0 13.664-5.312 26.496-14.976 36.128-9.6 9.632-22.464 14.944-36.096 14.944l-57.728 0 0 44.544c0 11.328 9.216 20.544 20.544 20.544l264.16 0c11.328 0 20.544-9.216 20.544-20.544l0-640.864c0-11.328-9.216-20.544-20.544-20.544l-264.16 0c-11.328 0-20.544 9.216-20.544 20.544l0 29.152 32.896 0c0-0.128-0.032-0.256-0.032-0.384 0-9.056 7.392-16.448 16.416-16.448l206.656 0c9.024 0 16.416 7.392 16.416 16.448s-7.392 16.416-16.416 16.416l-161.12 0c7.904 8.352 12.704 18.912 13.76 30.304l147.36 0c9.024 0 16.416 7.392 16.416 16.448s-7.392 16.416-16.416 16.416l-147.136 0 0 30.304 147.136 0c9.024 0 16.416 7.392 16.416 16.416s-7.392 16.448-16.416 16.448zM850.848 732.928c0 4.512-3.712 8.224-8.224 8.224s-8.224-3.712-8.224-8.224l0-24.64c0-4.512 3.712-8.224 8.224-8.224s8.224 3.712 8.224 8.224l0 24.64zM842.624 671.328c-13.6 0-24.64-11.04-24.64-24.672s11.008-24.64 24.64-24.64c13.6 0 24.672 11.04 24.672 24.64s-11.04 24.672-24.672 24.672zM974.688 131.776l-264.16 0c-27.136 0-49.312 22.176-49.312 49.28l0 29.152 20.544 0 0-29.152c0-15.872 12.896-28.768 28.768-28.768l264.16 0c15.84 0 28.768 12.896 28.768 28.768l0 640.864c0 15.872-12.896 28.768-28.768 28.768l-264.16 0c-15.872 0-28.768-12.896-28.768-28.768l0-44.544-20.544 0 0 44.544c0 27.136 22.176 49.312 49.312 49.312l16.928 0 0 4.512c0 4.192 1.6 8.416 4.8 11.616s7.424 4.832 11.616 4.832l8.224 0c4.192 0 8.416-1.6 11.616-4.832s4.8-7.424 4.8-11.616l0-4.512 148.096 0 0 4.512c0 4.192 1.632 8.416 4.8 11.616s7.424 4.832 11.616 4.832l8.224 0c4.224 0 8.416-1.6 11.616-4.832s4.8-7.424 4.8-11.616l0-4.512 16.96 0c27.104 0 49.312-22.176 49.312-49.312l0-640.864c0-27.104-22.208-49.28-49.312-49.28zM460.352 492.64c-2.976-2.976-7.136-4.704-11.456-4.704-4.192 0-8.288 1.664-11.264 4.512-0.704-2.784-2.144-5.344-4.192-7.424-3.008-2.976-7.168-4.704-11.456-4.704-4.192 0-8.288 1.632-11.264 4.512-0.704-2.784-2.144-5.344-4.224-7.424-2.976-2.976-7.168-4.704-11.456-4.704-3.648 0-7.232 1.248-10.048 3.456l0-36.416c0-4.288-1.664-8.32-4.704-11.36-2.976-2.976-7.168-4.704-11.456-4.704s-8.448 1.696-11.456 4.704c-3.04 3.04-4.704 7.072-4.704 11.36l0 90.848-12.032-12.96c-2.848-3.072-6.72-4.864-10.88-5.12-0.32 0-0.608-0.032-0.896-0.032-3.84 0-7.584 1.408-10.496 3.936l-0.864 0.768c-3.04 2.624-4.96 6.272-5.44 10.24s0.544 7.968 2.848 11.2l43.232 60.896c0.608 4.128 2.496 7.904 5.504 10.912 3.68 3.68 8.576 5.696 13.792 5.696l54.688 0c5.216 0 10.112-2.016 13.792-5.696 3.36-3.36 5.344-7.776 5.664-12.448l10.848-36.64c0.832-2.848 1.504-5.76 1.92-8.704s0.64-5.888 0.64-8.864l0-39.776c0-4.256-1.664-8.288-4.704-11.328zM316.704 423.648c0-28.8 23.36-52.16 52.128-52.16s52.16 23.36 52.16 52.16c0 19.104-10.336 35.776-25.664 44.896-0.096 0-0.192-0.032-0.288-0.032-2.016 0-3.968 0.32-5.888 0.864l0-8.576c13.184-7.232 22.24-21.088 22.24-37.152 0-23.456-19.072-42.56-42.56-42.56s-42.528 19.104-42.528 42.56c0 16.064 9.056 29.92 22.208 37.152l0 10.88c-18.688-7.936-31.808-26.464-31.808-48.032zM397.376 423.648c0-15.712-12.768-28.48-28.48-28.48s-28.48 12.736-28.48 28.48c0 7.712 3.104 14.72 8.096 19.84l0-3.776c0-3.52 0.96-6.848 2.656-9.856-0.704-1.952-1.152-4.032-1.152-6.208 0-10.4 8.448-18.88 18.88-18.88s18.848 8.48 18.848 18.88c0 2.24-0.448 4.352-1.184 6.336 1.632 2.944 2.56 6.24 2.56 9.728l0 3.904c5.056-5.152 8.192-12.16 8.192-19.968z" /></svg>