<?xml version="1.0" standalone="no"?><!DOCTYPE svg PUBLIC "-//W3C//DTD SVG 1.1//EN" "http://www.w3.org/Graphics/SVG/1.1/DTD/svg11.dtd"><svg class="icon" width="200px" height="182.21px" viewBox="0 0 1124 1024" version="1.1" xmlns="http://www.w3.org/2000/svg"><path  d="M923.711438 1010.160328a181.975823 181.975823 0 0 0 26.79929-2.161233A248.109554 248.109554 0 0 0 1030.908598 821.268559 248.109554 248.109554 0 0 0 950.942975 633.673531a181.975823 181.975823 0 0 0-26.79929-2.161233A227.361717 227.361717 0 0 1 1017.941199 821.268559a227.361717 227.361717 0 0 1-94.229761 188.891769zM915.930999 1010.160328a175.92437 175.92437 0 0 1-26.367043-2.161233A248.109554 248.109554 0 0 1 809.166087 821.268559a248.109554 248.109554 0 0 1 80.397869-187.162782 175.92437 175.92437 0 0 1 26.367043-2.161233A227.361717 227.361717 0 0 0 821.268992 821.268559a227.361717 227.361717 0 0 0 94.662007 188.891769zM921.550205 937.110651a202.291414 202.291414 0 0 0-114.113105 35.011975 107.197159 107.197159 0 0 0 11.238412 8.212686 189.324015 189.324015 0 0 1 205.31714 0 107.197159 107.197159 0 0 0 11.238412-8.212686 201.859167 201.859167 0 0 0-113.680859-35.011975zM921.550205 704.994221a199.265687 199.265687 0 0 1-114.113105-35.444222l11.238412-7.780439a191.485248 191.485248 0 0 0 205.31714 0l11.238412 7.780439a199.265687 199.265687 0 0 1-113.680859 35.444222zM721.420025 814.352614h389.454196v12.967398h-389.454196zM1102.661535 731.361264a6.915946 6.915946 0 0 0-9.509425 0 7.348192 7.348192 0 0 0 0 8.212686A187.162782 187.162782 0 0 1 1110.874221 821.268559a189.324015 189.324015 0 0 1-189.324016 189.324016 196.239961 196.239961 0 0 1-165.982698-97.687734 6.483699 6.483699 0 0 0-6.051452-4.322466 6.483699 6.483699 0 0 0-6.4837 6.915945 5.619206 5.619206 0 0 0 0 2.59348 199.697934 199.697934 0 0 0 178.085604 105.90042A202.72366 202.72366 0 0 0 1123.841619 821.268559a200.562427 200.562427 0 0 0-21.180084-89.907295zM743.896849 886.970044a176.356617 176.356617 0 0 1-12.102906-65.701485 189.324015 189.324015 0 0 1 334.991123-121.02905 7.348192 7.348192 0 0 0 9.509426 0 6.051453 6.051453 0 0 0 0-8.644933 198.833441 198.833441 0 0 0-154.744287-72.185184A202.291414 202.291414 0 0 0 718.826545 821.268559a223.471497 223.471497 0 0 0 12.535152 70.456198 6.915946 6.915946 0 0 0 6.483699 5.186959 6.915946 6.915946 0 0 0 6.483699-6.915946 5.619206 5.619206 0 0 0-0.432246-3.025726zM1085.803917 713.639153m-6.483699 0a6.483699 6.483699 0 1 0 12.967398 0 6.483699 6.483699 0 1 0-12.967398 0ZM912.473027 622.867365h14.264138v392.912169h-14.264138zM19.45153 815.217107a19.451097 19.451097 0 1 1 19.451097-19.451098 19.451097 19.451097 0 0 1-19.451097 19.451098zM786.689263 81.262363m-27.231536 0a27.231536 27.231536 0 1 0 54.463072 0 27.231536 27.231536 0 1 0-54.463072 0ZM886.105983 81.262363m-27.231536 0a27.231536 27.231536 0 1 0 54.463073 0 27.231536 27.231536 0 1 0-54.463073 0ZM656.583033 958.722981m-18.154357 0a18.154358 18.154358 0 1 0 36.308715 0 18.154358 18.154358 0 1 0-36.308715 0ZM994.599882 564.94632m-18.154357 0a18.154358 18.154358 0 1 0 36.308715 0 18.154358 18.154358 0 1 0-36.308715 0ZM940.569056 0H72.185616A72.185184 72.185184 0 0 0 0.000432 72.185184v648.369915a18.154358 18.154358 0 0 0 18.154358 18.154358 18.586604 18.586604 0 0 0 18.154358-18.154358V162.956972H976.877771v402.853841h35.876469V72.185184A72.185184 72.185184 0 0 0 940.569056 0z m36.308715 126.648257H36.309148V72.185184a35.876469 35.876469 0 0 1 35.876468-35.876469h868.38344a36.308715 36.308715 0 0 1 36.308715 35.876469zM36.309148 904.259909v-31.98625a18.154358 18.154358 0 0 0-18.154358-18.154357 18.154358 18.154358 0 0 0-18.154358 18.154357v31.98625a73.049677 73.049677 0 0 0 72.185184 72.61743h583.965171v-36.308715H72.185616a36.308715 36.308715 0 0 1-35.876468-36.308715zM163.389651 487.574176h127.080503a46.682634 46.682634 0 0 0 46.250388-46.250387V348.823014A46.682634 46.682634 0 0 0 290.470154 302.572627H163.389651a46.250387 46.250387 0 0 0-46.250387 46.250387v92.500775a46.250387 46.250387 0 0 0 46.250387 46.250387z m-23.341317-138.751162a22.90907 22.90907 0 0 1 23.341317-22.90907h127.080503a22.90907 22.90907 0 0 1 22.909071 22.90907v92.500775a22.90907 22.90907 0 0 1-22.909071 22.90907H163.389651a23.341317 23.341317 0 0 1-23.341317-22.90907zM444.349948 487.574176h127.080503a46.250387 46.250387 0 0 0 46.250387-46.250387V348.823014A46.250387 46.250387 0 0 0 571.430451 302.572627h-127.080503a46.250387 46.250387 0 0 0-46.250388 46.250387v92.500775a46.250387 46.250387 0 0 0 46.250388 46.250387z m-23.341317-138.751162a22.90907 22.90907 0 0 1 23.341317-22.90907h127.080503a22.90907 22.90907 0 0 1 22.90907 22.90907v92.500775a22.90907 22.90907 0 0 1-22.90907 22.90907h-127.080503a23.341317 23.341317 0 0 1-23.341317-22.90907zM725.310244 487.574176h127.080504a46.250387 46.250387 0 0 0 46.250387-46.250387V348.823014A46.250387 46.250387 0 0 0 852.390748 302.572627h-127.080504a46.250387 46.250387 0 0 0-46.250387 46.250387v92.500775a46.250387 46.250387 0 0 0 46.250387 46.250387z m-22.90907-138.751162a22.476824 22.476824 0 0 1 22.90907-22.90907h127.080504a22.476824 22.476824 0 0 1 22.90907 22.90907v92.500775a22.90907 22.90907 0 0 1-22.90907 22.90907h-127.080504a22.90907 22.90907 0 0 1-22.90907-22.90907zM444.349948 846.338863h127.080503a46.250387 46.250387 0 0 0 46.250387-46.250388v-92.068527a46.250387 46.250387 0 0 0-46.250387-46.250388h-127.080503a46.250387 46.250387 0 0 0-46.250388 46.250388v92.068527a46.250387 46.250387 0 0 0 46.250388 46.250388z m-23.341317-138.318915a23.341317 23.341317 0 0 1 23.341317-23.341317h127.080503a23.341317 23.341317 0 0 1 22.90907 23.341317v92.068527a23.341317 23.341317 0 0 1-22.90907 23.341317h-127.080503a23.341317 23.341317 0 0 1-23.341317-23.341317zM163.389651 846.338863h127.080503a46.682634 46.682634 0 0 0 46.250388-46.250388v-92.068527a46.682634 46.682634 0 0 0-46.250388-46.250388H163.389651a46.250387 46.250387 0 0 0-46.250387 46.250388v92.068527a46.250387 46.250387 0 0 0 46.250387 46.250388z m-23.341317-138.318915a23.341317 23.341317 0 0 1 23.341317-23.341317h127.080503a23.341317 23.341317 0 0 1 22.909071 23.341317v92.068527a23.341317 23.341317 0 0 1-22.909071 23.341317H163.389651a23.341317 23.341317 0 0 1-23.341317-23.341317zM208.775545 475.039025m17.722111 0l0.864493 0q17.722111 0 17.722111 17.722111l0 163.821465q0 17.722111-17.722111 17.722111l-0.864493 0q-17.722111 0-17.722111-17.722111l0-163.821465q0-17.722111 17.722111-17.722111ZM489.735842 475.039025m17.722111 0l0.864493 0q17.722111 0 17.722111 17.722111l0 163.821465q0 17.722111-17.722111 17.722111l-0.864493 0q-17.722111 0-17.722111-17.722111l0-163.821465q0-17.722111 17.722111-17.722111ZM410.202466 377.351291m0 17.722111l0 0.864493q0 17.722111-17.722112 17.722111l-53.598579 0q-17.722111 0-17.722111-17.722111l0-0.864493q0-17.722111 17.722111-17.722111l53.598579 0q17.722111 0 17.722112 17.722111ZM692.891749 376.919044m0 17.722111l0 0.864493q0 17.722111-17.722111 17.722111l-53.59858 0q-17.722111 0-17.722111-17.722111l0-0.864493q0-17.722111 17.722111-17.722111l53.59858 0q17.722111 0 17.722111 17.722111ZM410.634712 736.115977m0 17.722111l0 0.864493q0 17.722111-17.722111 17.722111l-53.59858 0q-17.722111 0-17.722111-17.722111l0-0.864493q0-17.722111 17.722111-17.722111l53.59858 0q17.722111 0 17.722111 17.722111Z" /></svg>