<?xml version="1.0" standalone="no"?><!DOCTYPE svg PUBLIC "-//W3C//DTD SVG 1.1//EN" "http://www.w3.org/Graphics/SVG/1.1/DTD/svg11.dtd"><svg class="icon" width="200px" height="200.00px" viewBox="0 0 1024 1024" version="1.1" xmlns="http://www.w3.org/2000/svg"><path  d="M902.08 672c0-3.04 0-6.08-0.32-9.12l48.16-27.84-96-166.24-48.16 27.84c-5.12-3.2-10.4-6.24-15.68-9.12V432h-192v55.68c-5.44 2.72-10.56 5.76-15.68 9.12l-48.16-27.84-96 166.24 48.16 27.84c-0.16 3.04-0.32 6.08-0.32 9.12s0 6.08 0.32 9.12l-48.16 27.84 96 166.24 48.16-27.84c5.12 3.2 10.4 6.24 15.68 9.12V912h192v-55.68c5.44-2.72 10.56-5.76 15.68-9.12l48.16 27.84 96-166.24-48.16-27.84c0.16-2.88 0.32-5.92 0.32-8.96z m-65.92-21.6c1.28 8.32 1.76 15.2 1.76 21.6s-0.64 13.28-1.76 21.6l-3.2 21.6 29.44 17.12-32 55.36-29.44-16.96-17.12 13.76c-11.2 8.96-23.84 16.32-37.6 21.6l-20.32 8V848h-64v-34.08l-20.32-8c-13.6-5.28-26.24-12.64-37.6-21.6l-17.12-13.76-29.44 16.96-32-55.36 29.44-17.12-3.2-21.6c-1.28-8.32-1.76-15.2-1.76-21.6s0.64-13.28 1.76-21.6l3.2-21.6-29.44-17.12 32-55.36 29.44 16.96 17.12-13.76c11.2-8.96 23.84-16.32 37.6-21.6l20.32-8V496h64v34.08l20.32 8c13.6 5.28 26.24 12.64 37.6 21.6l17.12 13.76 29.44-16.96 32 55.36-29.44 17.12 3.2 21.44zM694.08 576c-52.96 0-96 43.04-96 96s43.04 96 96 96 96-43.04 96-96-43.2-96-96-96z m0 128c-17.6 0-32-14.4-32-32s14.4-32 32-32 32 14.4 32 32-14.4 32-32 32zM426.08 848h-320c-17.6 0-32 14.4-32 32s14.4 32 32 32h320a32 32 0 1 0 0-64zM170.08 752h160c17.6 0 32-14.4 32-32s-14.4-32-32-32h-160c-17.6 0-32-14.4-32-32V208c0-17.6 14.4-32 32-32h640c17.6 0 32 14.4 32 32v192c0 17.6 14.4 32 32 32s32-14.4 32-32V208c0-52.96-43.04-96-96-96h-640c-52.96 0-96 43.04-96 96v448c0 52.96 43.2 96 96 96z" /></svg>