<?xml version="1.0" standalone="no"?><!DOCTYPE svg PUBLIC "-//W3C//DTD SVG 1.1//EN" "http://www.w3.org/Graphics/SVG/1.1/DTD/svg11.dtd"><svg class="icon" width="200px" height="200.00px" viewBox="0 0 1024 1024" version="1.1" xmlns="http://www.w3.org/2000/svg"><path fill="#333333" d="M307.8 951.6H166.6c-61.1 0-110.8-49.7-110.8-110.8V119c0-61 49.8-110.7 110.8-110.7H722C783.2 8.3 832.9 58 832.9 119v220.4c0 16-13 29-29 29s-29-13-29-29V119c0-29.1-23.7-52.7-52.7-52.7H166.6c-29.1 0-52.7 23.7-52.7 52.7v721.7c0 29.1 23.7 52.7 52.7 52.7h141.1c16 0 29 13 29 29s-12.9 29.2-28.9 29.2zM598.2 244.5H220.7c-16 0-29-13-29-29s13-29 29-29h377.4c16 0 29 13 29 29s-12.9 29-28.9 29zM437.1 405.4H220.7c-16 0-29-13-29-29s13-29 29-29h216.4c16 0 29 13 29 29s-13 29-29 29zM675.9 1015c-77.9 0-151.2-30.3-206.2-85.4s-85.4-128.3-85.4-206.2 30.3-151.2 85.4-206.2c55.1-55.1 128.3-85.4 206.2-85.4S827 462 882.1 517.1c55.1 55.1 85.4 128.3 85.4 206.2s-30.3 151.2-85.4 206.2-128.3 85.5-206.2 85.5z m0-542.4c-138.3 0-250.8 112.5-250.8 250.8s112.5 250.8 250.8 250.8 250.8-112.5 250.8-250.8-112.5-250.8-250.8-250.8zM675.9 1005.2c-57.4 0-88.3-145.2-88.3-281.9s31-281.9 88.3-281.9c57.4 0 88.3 145.2 88.3 281.9s-30.9 281.9-88.3 281.9z m0-545.3c-15.9 0-34 28-47.1 73.2-14.7 50.7-22.8 118.2-22.8 190.2s8.1 139.5 22.8 190.2c13.1 45.2 31.1 73.2 47.1 73.2 15.9 0 34-28 47.1-73.2 14.7-50.7 22.8-118.2 22.8-190.2 0-72-8.1-139.5-22.8-190.2-13.1-45.2-31.2-73.2-47.1-73.2zM675.9 811.7c-136.7 0-281.9-31-281.9-88.4 0-57.4 145.2-88.3 281.9-88.3s281.9 31 281.9 88.3c0 57.4-145.3 88.4-281.9 88.4z m0-158.2c-72 0-139.5 8.1-190.2 22.8-45.2 13.1-73.2 31.1-73.2 47.1 0 15.9 28 34 73.2 47.1 50.7 14.7 118.2 22.8 190.2 22.8s139.5-8.1 190.2-22.8c45.2-13.1 73.2-31.1 73.2-47.1 0-15.9-28-34-73.2-47.1-50.7-14.7-118.2-22.8-190.2-22.8z" /></svg>