<?xml version="1.0" standalone="no"?><!DOCTYPE svg PUBLIC "-//W3C//DTD SVG 1.1//EN" "http://www.w3.org/Graphics/SVG/1.1/DTD/svg11.dtd"><svg class="icon" width="200px" height="191.76px" viewBox="0 0 1068 1024" version="1.1" xmlns="http://www.w3.org/2000/svg"><path  d="M1051.54571 166.737788A150.638967 150.638967 0 0 0 906.708591 20.123526L160.779133 20.175795C78.507886 23.782349 13.851258 93.770405 16.673779 175.466694L16.726048 712.372824a151.475269 151.475269 0 0 0 144.993925 156.074933h320.565158v25.350416l-229.042315 0.104537a54.255117 54.255117 0 0 0-50.178143 50.178143 54.464193 54.464193 0 0 0 50.230411 58.645705l1.568067 0.104538 560.636211-0.209076c26.970752-2.090756 48.087387-23.155122 50.125874-50.073605 2.404369-30.054617-20.071257-56.398142-51.74621-58.907049H586.457047v-25.245878l321.192384-0.052269A150.534429 150.534429 0 0 0 1051.650248 721.310806l-0.104538-554.573018z m-931.222705 1.986218a40.403859 40.403859 0 0 1 40.612935-39.567557l0.784033 0.052269 750.163239 0.209076c10.715124 1.045378 20.43714 6.16773 27.232096 14.478485a41.815119 41.815119 0 0 1 8.885713 31.570415v537.637895l0.261344 6.794957a39.933439 39.933439 0 0 1-12.283191 28.225205c-7.735797 7.474453-18.659997 12.492267-29.166046 11.237813l-750.163238-0.209075c-10.715124-1.045378-20.384871-6.16773-27.232096-14.478485s-9.98336-18.764535-8.833444-31.570415V175.466694l-0.261345-6.742688zM179.386861 568.685621c16.987392 2.665714 35.804196-3.658823 47.407892-16.203359l80.807718-87.445868 91.575111 145.725691c9.460671 13.537645 24.879996 21.8484 41.29243 22.371088l6.847226 0.104538c28.904701 0 39.358481-22.736971 44.58537-34.18386l85.825532-243.834414 131.822164 188.377112a51.798479 51.798479 0 0 0 39.672094 22.266551c14.112603 1.515798 28.277474-2.247563 42.494615-13.328569l124.034097-134.226532c20.018988-21.221173 20.018988-54.516462-1.515798-77.253433a66.799653 66.799653 0 0 0-72.287887-9.826553l-87.968557 93.03864-148.966362-216.602317c-12.126385-12.126385-28.225205-19.130417-49.655454-19.234955-18.241846 3.397478-33.347558 15.68067-40.769742 33.71344l-84.780154 235.210045-70.876627-112.430402a52.843857 52.843857 0 0 0-41.919657-22.423357c-13.642183 0-27.702516 0-40.247052 13.433107L152.625185 470.367822l-4.338319 7.160839c-7.788066 21.8484-7.788066 45.996631 0.731765 69.569905 5.331428 11.551427 16.360165 19.339493 30.36823 21.587055z" /></svg>