<?xml version="1.0" standalone="no"?><!DOCTYPE svg PUBLIC "-//W3C//DTD SVG 1.1//EN" "http://www.w3.org/Graphics/SVG/1.1/DTD/svg11.dtd"><svg class="icon" width="200px" height="182.21px" viewBox="0 0 1124 1024" version="1.1" xmlns="http://www.w3.org/2000/svg"><path  d="M341.724269 691.716626C153.317953 691.716626 0.016255 536.080385 0.016255 345.858313S153.317953 0 341.724269 0v34.585831C172.34016 34.585831 34.602087 174.139661 34.602087 345.858313s137.738073 311.272482 307.122182 311.272482zM341.724269 691.716626c-114.911424 0-205.007515-152.091193-205.007515-345.858313S226.812844 0 341.724269 0c83.784176 0 158.230178 83.957105 189.61682 213.826902l-33.634721 8.12767C470.642955 109.896479 407.956135 34.585831 341.724269 34.585831 249.380099 34.585831 171.302585 177.079456 171.302585 345.858313s77.81812 311.272482 170.421684 311.272482zM625.846873 227.57477A306.171072 306.171072 0 0 0 359.017184 35.104619v131.339694h-34.585831V0h17.292916a340.583974 340.583974 0 0 1 316.200962 214.605083zM270.909779 478.840834H26.387952l-4.236765-11.32686a345.858313 345.858313 0 0 1 0-243.570716l4.1503-11.32686h244.608292v34.585831H50.684498a310.66723 310.66723 0 0 0 0 197.052774h220.225281zM1124.055772 1024H324.777211v-811.037744H1124.055772z m-764.69273-34.585831H1089.469941v-741.866082H359.363042zM342.070127 385.026767H1106.762857v34.585831H342.070127zM406.486238 299.513299h336.865996v34.585831H406.486238zM987.874062 299.513299h43.837541v34.585831h-43.837541zM463.552859 737.888711h498.2089v34.585831H463.552859zM927.175928 536.080385v97.013257H498.138691V536.080385z m34.585831-34.585831H463.552859v166.184919h498.2089V501.494554zM463.552859 838.792873h498.2089v34.585832H463.552859z" /></svg>